<svg xmlns="http://www.w3.org/2000/svg" viewBox="0 0 1180 220" preserveAspectRatio="xMidYMid meet" role="img" aria-label="Faryn Studio">
  <!-- F -->
  <g>
    <line x1="40" y1="20" x2="40" y2="200" stroke="#1c1c1c" stroke-width="8.5" stroke-linecap="round"/>
    <line x1="40" y1="20" x2="135" y2="20" stroke="#1c1c1c" stroke-width="8.5" stroke-linecap="round"/>
    <line x1="40" y1="110" x2="100" y2="110" stroke="#1c1c1c" stroke-width="8.5" stroke-linecap="round"/>
    <circle cx="40" cy="20" r="10" fill="#1c1c1c"/>
    <circle cx="135" cy="20" r="9" fill="#1c1c1c"/>
    <circle cx="100" cy="110" r="9" fill="#1c1c1c"/>
    <circle cx="40" cy="200" r="10" fill="#1c1c1c"/>
    <circle cx="40" cy="110" r="11" fill="#c4392c"/>
  </g>
  <!-- A -->
  <g>
    <line x1="240" y1="200" x2="295" y2="20" stroke="#1c1c1c" stroke-width="8.5" stroke-linecap="round"/>
    <line x1="295" y1="20" x2="350" y2="200" stroke="#1c1c1c" stroke-width="8.5" stroke-linecap="round"/>
    <line x1="267.5" y1="110" x2="322.5" y2="110" stroke="#1c1c1c" stroke-width="8.5" stroke-linecap="round"/>
    <circle cx="240" cy="200" r="10" fill="#1c1c1c"/>
    <circle cx="350" cy="200" r="10" fill="#1c1c1c"/>
    <circle cx="267.5" cy="110" r="9" fill="#1c1c1c"/>
    <circle cx="322.5" cy="110" r="9" fill="#1c1c1c"/>
    <circle cx="295" cy="20" r="11" fill="#c4392c"/>
  </g>
  <!-- R -->
  <g>
    <line x1="460" y1="20" x2="460" y2="200" stroke="#1c1c1c" stroke-width="8.5" stroke-linecap="round"/>
    <line x1="460" y1="20" x2="555" y2="20" stroke="#1c1c1c" stroke-width="8.5" stroke-linecap="round"/>
    <line x1="555" y1="20" x2="555" y2="110" stroke="#1c1c1c" stroke-width="8.5" stroke-linecap="round"/>
    <line x1="460" y1="110" x2="555" y2="110" stroke="#1c1c1c" stroke-width="8.5" stroke-linecap="round"/>
    <line x1="507" y1="110" x2="555" y2="200" stroke="#1c1c1c" stroke-width="8.5" stroke-linecap="round"/>
    <circle cx="460" cy="20" r="10" fill="#1c1c1c"/>
    <circle cx="555" cy="20" r="9" fill="#1c1c1c"/>
    <circle cx="555" cy="110" r="9" fill="#1c1c1c"/>
    <circle cx="460" cy="110" r="9" fill="#1c1c1c"/>
    <circle cx="460" cy="200" r="10" fill="#1c1c1c"/>
    <circle cx="555" cy="200" r="9" fill="#1c1c1c"/>
    <circle cx="507" cy="110" r="11" fill="#c4392c"/>
  </g>
  <!-- Y -->
  <g>
    <line x1="675" y1="20" x2="730" y2="115" stroke="#1c1c1c" stroke-width="8.5" stroke-linecap="round"/>
    <line x1="785" y1="20" x2="730" y2="115" stroke="#1c1c1c" stroke-width="8.5" stroke-linecap="round"/>
    <line x1="730" y1="115" x2="730" y2="200" stroke="#1c1c1c" stroke-width="8.5" stroke-linecap="round"/>
    <circle cx="675" cy="20" r="10" fill="#1c1c1c"/>
    <circle cx="785" cy="20" r="10" fill="#1c1c1c"/>
    <circle cx="730" cy="200" r="10" fill="#1c1c1c"/>
    <circle cx="730" cy="115" r="11" fill="#c4392c"/>
  </g>
  <!-- N -->
  <g>
    <line x1="890" y1="20" x2="890" y2="200" stroke="#1c1c1c" stroke-width="8.5" stroke-linecap="round"/>
    <line x1="890" y1="20" x2="1000" y2="200" stroke="#1c1c1c" stroke-width="8.5" stroke-linecap="round"/>
    <line x1="1000" y1="20" x2="1000" y2="200" stroke="#1c1c1c" stroke-width="8.5" stroke-linecap="round"/>
    <circle cx="890" cy="200" r="10" fill="#1c1c1c"/>
    <circle cx="1000" cy="20" r="10" fill="#1c1c1c"/>
    <circle cx="1000" cy="200" r="10" fill="#1c1c1c"/>
    <circle cx="890" cy="20" r="11" fill="#c4392c"/>
  </g>
</svg>
